# xmcd
#
# Track frame offsets:
#	150
#	15730
#	30900
#	47985
#	61885
#	78690
#	91417
#	108550
#	124992
#	144833
#	161848
#	177288
#	196418
#
# Disc length: 3007 seconds
#
# Revision: 2
# Processed by: cddbd v1.5.2PL0 Copyright (c) Steve Scherf et al.
# Submitted via: EasyCDDAExtractor 15.3.0.1
#
DISCID=ae0bbd0d
DTITLE=Area 305
DYEAR=2002
DGENRE=Latin
TTITLE0=Si No Estas
TTITLE1=Donde Estaras
TTITLE2=Hasta Que Me Olvide De Ti
TTITLE3=Fuera De Mi (Ya No Quiero Tu Querer)
TTITLE4=No Voy A Morir De Amor
TTITLE5=Ay Que Rico Tu Veneno
TTITLE6=Como Te Va Mi Amor
TTITLE7=Por Tu Amor
TTITLE8=Tu Y Yo
TTITLE9=Vive La Vida
TTITLE10=Si No Estas (Version Cumbia) (Bonus Track)
TTITLE11=Si No Estas (Version Salsa) (Bonus Track)
TTITLE12=Si No Estas (Club Mix Extended Play) (Bonus Track)
EXTD=YEAR: 2002
EXTT0=
EXTT1=
EXTT2=
EXTT3=
EXTT4=
EXTT5=
EXTT6=
EXTT7=
EXTT8=
EXTT9=
EXTT10=
EXTT11=
EXTT12=
PLAYORDER=
